<?xml version="1.0" encoding="UTF-8"?>
<svg id="Layer_1" data-name="Layer 1" xmlns="http://www.w3.org/2000/svg" viewBox="0 0 346.05 540">
  <defs>
    <style>
      .cls-1 {
        fill: #191946;
      }

      .cls-1, .cls-2, .cls-3, .cls-4, .cls-5, .cls-6, .cls-7, .cls-8 {
        fill-rule: evenodd;
        stroke-width: 0px;
      }

      .cls-2 {
        fill: #b28b67;
      }

      .cls-4 {
        fill: #89c5cc;
      }

      .cls-5 {
        fill: #69a1ac;
      }

      .cls-6 {
        fill: #db2927;
      }

      .cls-7 {
        fill: #ef4638;
      }

      .cls-8 {
        fill: #997659;
      }
    </style>
  </defs>
  <g id="Head_Front_Short-1" data-name="Head Front Short-1">
    <g id="Head">
      <path id="Path_3" data-name="Path 3" class="cls-2" d="m177.75,51.16c6.18-7.26,10.37-16.15,9.67-26.12-2.01-28.71-41.99-22.4-49.76-7.9-7.77,14.49-6.85,51.25,3.2,53.84,4.01,1.03,12.55-1.5,21.23-6.74l-5.45,38.58h32.2l-11.08-51.67Z"/>
    </g>
    <path id="Hair" class="cls-1" d="m151.86,19.24c4.37,2.44,7.48,7.03,11.22,13.03,4.14-1.63,8.81.41,10.44,4.55,1.18,3.01.45,6.44-1.87,8.7,1.86,2.63,3.95,5.38,6.34,8.21,8.93-5.36,15.57-20.97,7.04-36.04-7.33-30.19-48.89-11.45-56.89-16.54-1.75,10.95,3.89,19.78,23.71,18.07Z"/>
  </g>
  <g id="Bottom_Standing_Baggy-Pants" data-name="Bottom Standing Baggy-Pants">
    <path id="Leg" class="cls-8" d="m190.13,219.31l-65.86,166.68-44.17,140.92h-17.44l67.53-307.6h59.94Z"/>
    <path id="Leg-2" class="cls-2" d="m203.39,219.31c.7,58.57,10.93,137.43,12.56,141.09,1.09,2.43,38.7,33.39,112.82,92.86l-12.01,12.86c-87.45-50.99-133.21-79.89-137.25-86.69-6.07-10.2-25.83-104.08-41.7-160.12h65.59Z"/>
    <g id="Accessories_Shoe_Flat-Sneaker" data-name="Accessories Shoe Flat-Sneaker">
      <path id="shoe" class="cls-3" d="m330.38,448.97c4.03,1.43,6.81,2.78,8.34,4.06,2.65,2.38,5.1,4.97,7.34,7.74l-48.66,57.97c-6.24-2.67-8.2-5.8-5.88-9.38,2.33-3.58,4.23-6.58,5.72-8.99l10.6-37.03c.2-.71.95-1.12,1.66-.92h.04s5.65,1.81,5.65,1.81c3.92-1.83,6.67-3.68,8.25-5.56,1.28-1.53,2.43-4.15,3.46-7.88h0c.39-1.43,1.87-2.27,3.3-1.88,0,0,0,0,0,0,.06.02.12.04.18.06Z"/>
    </g>
    <g id="Accessories_Shoe_Flat-Sneaker-2" data-name="Accessories Shoe Flat-Sneaker-2">
      <path id="shoe-2" class="cls-3" d="m87.24,520.41c1.5,4.01,2.25,7.01,2.25,8.99-.12,3.56-.53,7.1-1.21,10.59H12.61c-1.97-6.5-.83-10.01,3.41-10.53,4.24-.52,7.76-.99,10.56-1.4l35.17-15.68c.68-.3,1.47,0,1.77.68v.03s2.28,5.49,2.28,5.49c3.92,1.83,7.11,2.74,9.56,2.74,1.99,0,4.74-.8,8.25-2.41h0c1.35-.62,2.94-.03,3.56,1.32,0,0,0,0,0,0,.03.06.05.12.07.18Z"/>
    </g>
    <path id="Pant" class="cls-5" d="m145.85,512.4l-82.93-9,61.46-284.09h74.28l-52.81,293.09Z"/>
    <path id="Pant-2" class="cls-4" d="m311.62,432.52l-54.4,64.38c-57.29-62.57-90.69-103.41-100.2-122.49-9.51-19.09-18.06-70.79-25.65-155.1h83.62c4.15,74.18,6.94,112.99,8.38,116.45s30.86,35.71,88.25,96.76Z"/>
  </g>
  <g id="Body_Turtle-Neck" data-name="Body Turtle-Neck">
    <path id="Skin" class="cls-2" d="m69.07,203.1l-39.43,38.22c-11.47,4.86-20.87,10.23-28.2,16.11-1.65,1.98-3.44,5.76,4.31,4.07,7.75-1.69,15.99-3.13,17.44-.62s-2.84,6.34-.14,9.62c1.8,2.19,7.83-4.77,18.12-20.86l41-24.02-13.1-22.52Zm192.83-34.59l-30.48.11c23.22,74.73,35.54,113.86,36.97,117.39,3.22,7.93-3.6,20.01-6.51,26.5,9.49,4.22,8.48-11.41,20.46-5.88,10.93,5.05,19.25,14.21,31.88,6.46,1.55-.95,3.25-4.54-.86-7.34-10.24-6.98-25-19.19-27-23.21-2.72-5.48-10.87-43.5-24.46-114.05h0Z"/>
    <path id="Clothes-Back" class="cls-6" d="m169.02,82.59l-12.04-2.05c-18.96,66.6-116.39,112-122.37,136.89-2.19,9.13,4.41,13.75,1,16.53l15.65,11.38c2.65-3.07,8.3,2.55,20.11-1.39,11.81-3.93,97.65-82.5,97.65-161.36Z"/>
    <path id="Clothes-Front" class="cls-7" d="m148.77,91.45c1.39,88.17-49.91,110.66-38.49,146.03,9.44,29.21,99.75,60.61,115.38,31.98,6.33-11.59,9.2-25.61,9.52-40.84,3.99,11.71,7.15,21.79,9.48,30.24,4.01,14.58,19.55,16.89,19.55,22.51l20.48-5.62c-1.39-7.63,8.26-11.34,5.68-28.39-11.6-76.37-42.75-131.73-93.47-166.07l-.54-7.62c-.21-2.95-2.77-5.18-5.73-4.98l-37.9,2.63c-2.95.2-5.19,2.76-4.98,5.71,0,0,0,0,0,0h0l1.02,14.42Z"/>
  </g>
</svg>